<svg id="icon_whatsapp" xmlns="http://www.w3.org/2000/svg" width="31.288" height="31.439" viewBox="0 0 31.288 31.439">
  <path id="whatsapp" d="M26.979,4.569A15.582,15.582,0,0,0,2.46,23.366L.25,31.439l8.259-2.166a15.562,15.562,0,0,0,7.445,1.9h.007a15.585,15.585,0,0,0,11.02-26.6ZM15.959,28.537h-.005a12.932,12.932,0,0,1-6.59-1.8l-.473-.281-4.9,1.286L5.3,22.959l-.308-.49a12.948,12.948,0,1,1,10.969,6.068Zm7.1-9.7c-.389-.195-2.3-1.136-2.66-1.266s-.616-.195-.876.195-1.005,1.266-1.233,1.526-.454.292-.843.1a10.632,10.632,0,0,1-3.13-1.932,11.742,11.742,0,0,1-2.165-2.7c-.227-.39,0-.58.171-.794a11.011,11.011,0,0,0,.973-1.331.716.716,0,0,0-.033-.682c-.1-.195-.876-2.111-1.2-2.89-.316-.759-.637-.656-.876-.668s-.486-.014-.746-.014a1.43,1.43,0,0,0-1.038.487,4.366,4.366,0,0,0-1.362,3.247,7.572,7.572,0,0,0,1.589,4.027c.195.26,2.745,4.192,6.65,5.877a22.28,22.28,0,0,0,2.219.82A5.336,5.336,0,0,0,20.953,23a4.01,4.01,0,0,0,2.627-1.851,3.252,3.252,0,0,0,.227-1.851c-.1-.162-.357-.26-.746-.455Zm0,0" transform="translate(-0.25)" fill="#5a9d34"/>
</svg>
