<svg id="logo_iusa_gray" xmlns="http://www.w3.org/2000/svg" width="34.475" height="41.465" viewBox="0 0 34.475 41.465">
  <rect id="Rectángulo_1378" data-name="Rectángulo 1378" width="2.142" height="8.427" transform="translate(4.76 4.018)" fill="#4d4d4d"/>
  <path id="Trazado_54" data-name="Trazado 54" d="M210.38,52.329l1.045-3.767,1.03,3.767Zm2.217-5.974h-2.359L207.012,56.3h2.244l.627-2.208h3.054l.629,2.208h2.259Z" transform="translate(-184.745 -25.985)" fill="#4d4d4d"/>
  <path id="Trazado_55" data-name="Trazado 55" d="M207.761,53.939l-.674.633-.428-.625,1.232-1.076h.768v5.076h-.9Z" transform="translate(-185.256 -16.554)" fill="#4d4d4d"/>
  <path id="Trazado_56" data-name="Trazado 56" d="M209.49,55.437c.426,0,.651-.377.651-.952,0-.6-.2-.959-.651-.959s-.654.362-.654.959c0,.553.189.952.654.952m-1.27,1.7a1.941,1.941,0,0,0,.835.218c.979,0,1.145-1.077,1.175-1.7l-.015-.015a1,1,0,0,1-.928.509c-.712,0-1.349-.543-1.349-1.65a1.454,1.454,0,0,1,1.486-1.659c1.29,0,1.645,1.062,1.645,2.372,0,1.5-.414,2.851-1.963,2.851a2.505,2.505,0,0,1-.935-.174Z" transform="translate(-183.404 -16.598)" fill="#4d4d4d"/>
  <path id="Trazado_57" data-name="Trazado 57" d="M209.4,57.065a2.258,2.258,0,0,0,1.021.255.84.84,0,0,0,.928-.844c0-.59-.521-.764-.977-.764a2.7,2.7,0,0,0-.37.022v-.7h.152c.58,0,1.175-.14,1.175-.771,0-.465-.4-.675-.82-.675a2.386,2.386,0,0,0-.964.247l-.051-.778a3.714,3.714,0,0,1,1.219-.21c.891,0,1.515.45,1.515,1.278a1.1,1.1,0,0,1-.979,1.18v.015c.463.13,1.057.318,1.057,1.229a1.564,1.564,0,0,1-1.752,1.52,3.6,3.6,0,0,1-1.2-.218Z" transform="translate(-181.365 -16.596)" fill="#4d4d4d"/>
  <path id="Trazado_58" data-name="Trazado 58" d="M212.273,55.437c.426,0,.651-.377.651-.952,0-.6-.2-.959-.651-.959s-.654.362-.654.959c0,.553.188.952.654.952m-1.27,1.7a1.952,1.952,0,0,0,.835.218c.979,0,1.145-1.077,1.175-1.7L213,55.64a1,1,0,0,1-.928.509c-.712,0-1.349-.543-1.349-1.65a1.454,1.454,0,0,1,1.486-1.659c1.29,0,1.645,1.062,1.645,2.372,0,1.5-.414,2.851-1.963,2.851a2.505,2.505,0,0,1-.935-.174Z" transform="translate(-179.376 -16.598)" fill="#4d4d4d"/>
  <path id="Trazado_59" data-name="Trazado 59" d="M230.26,70.493h-9.937L200.029,50.127V40.156h9.937L230.26,60.519Zm2.1,2.112h.012V59.641h0L210.842,38.032H197.924v.012h-.01V51.006h0l21.533,21.609h12.915Z" transform="translate(-197.914 -38.032)" fill="#4d4d4d"/>
  <path id="Trazado_60" data-name="Trazado 60" d="M205.015,49.026a1.275,1.275,0,0,1-1.285-1.358V41.583h-2.144v6a3.442,3.442,0,0,0,6.87,0v-6h-2.142l-.015,6.055a1.264,1.264,0,0,1-1.285,1.388" transform="translate(-192.599 -32.892)" fill="#4d4d4d"/>
  <path id="Trazado_61" data-name="Trazado 61" d="M210.619,44.413a7.548,7.548,0,0,0-2.45-.406c-2.731,0-3.441,1.677-3.441,2.837a2.68,2.68,0,0,0,1.909,2.536c1.241.516,2.1.817,2.1,1.571s-.707,1.148-1.5,1.148a5.536,5.536,0,0,1-2.379-.781v2.007a8.853,8.853,0,0,0,2.44.441c1.158,0,3.869-.1,3.869-3.064,0-1.138-.536-1.978-2.208-2.631-1.331-.524-1.757-.991-1.757-1.473,0-.624.751-1.023,1.285-1.023a7.373,7.373,0,0,1,2.132.624Z" transform="translate(-188.051 -29.383)" fill="#4d4d4d"/>
</svg>
