<svg id="logo_pe_favicon" xmlns="http://www.w3.org/2000/svg" xmlns:xlink="http://www.w3.org/1999/xlink" width="18.806" height="19.483" viewBox="0 0 18.806 19.483">
  <defs>
    <linearGradient id="linear-gradient" x1="52.443" y1="-29.208" x2="52.113" y2="-30.232" gradientUnits="objectBoundingBox">
      <stop offset="0" stop-color="#5f0000"/>
      <stop offset="0.189" stop-color="#670706"/>
      <stop offset="0.486" stop-color="#7d1c19"/>
      <stop offset="0.852" stop-color="#a23e37"/>
      <stop offset="1" stop-color="#b34e46"/>
    </linearGradient>
    <clipPath id="clip-path">
      <path id="Trazado_29" data-name="Trazado 29" d="M278.042-59.95a4.526,4.526,0,0,1,1.993,2.12c.593,1.118,2.883,4.723,3.576,4.433s2.147-.522,1.573-1.119-3.007-4.469-3.4-4.7c-.369-.614.082-1.614.159-1.851S278.042-59.95,278.042-59.95Z" transform="translate(-278.042 61.099)" fill="none"/>
    </clipPath>
    <clipPath id="clip-path-2">
      <path id="Trazado_34" data-name="Trazado 34" d="M299.829-77.95c1.206,3.529,1.3,6.689.22,7.06s-2.941-2.189-4.147-5.717-1.3-6.689-.22-7.06S298.623-81.478,299.829-77.95Z" transform="translate(-294.928 83.703)" fill="none"/>
    </clipPath>
    <clipPath id="clip-path-3">
      <path id="Trazado_35" data-name="Trazado 35" d="M275.246-68.526a30.485,30.485,0,0,1-3.588,1.565A2.448,2.448,0,0,0,270.3-64.3h0l0,.012,0,.012h0a2.448,2.448,0,0,0,2.705,1.269,30.543,30.543,0,0,1,3.919-.982A5.856,5.856,0,0,0,275.246-68.526Z" transform="translate(-270.211 68.526)" fill="none"/>
    </clipPath>
    <clipPath id="clip-path-4">
      <path id="Trazado_40" data-name="Trazado 40" d="M288.187-83.061c-1.6,3.511-5.624,6.069-8.579,7.547a21.268,21.268,0,0,0,1.579,4.481c3.24-.636,7.963-1.065,11.359.725-2.212-.829-3.941-5.483-4.07-5.73C288.427-76.312,286.672-80.456,288.187-83.061Z" transform="translate(-279.608 83.061)" fill="none"/>
    </clipPath>
    <clipPath id="clip-path-5">
      <path id="Trazado_41" data-name="Trazado 41" d="M298.025-73.815l-2.082.558.5,1.625.6,1.593,1.988-.833-.455-1.487Z" transform="translate(-295.943 73.815)" fill="none"/>
    </clipPath>
    <clipPath id="clip-path-6">
      <path id="Trazado_48" data-name="Trazado 48" d="M295.467-84.07c-1.235.422-1.222,3.73.028,7.389s3.265,6.283,4.5,5.861,1.222-3.731-.028-7.39S296.7-84.492,295.467-84.07Zm4.561,12.764c-.967.331-2.7-2.166-3.862-5.577s-1.327-6.444-.36-6.774,2.7,2.166,3.862,5.577S300.994-71.636,300.028-71.306Z" transform="translate(-294.549 84.114)" fill="none"/>
    </clipPath>
  </defs>
  <path id="Trazado_27" data-name="Trazado 27" d="M291.864-53.768l.014.018-.015-.018,0,0Zm.281,1.549.006.007-.005-.006v0Zm-.457-.081-.011.008h0Z" transform="translate(-280.703 69.282)" fill="#445e7a" opacity="0.5"/>
  <g id="Grupo_892" data-name="Grupo 892">
    <g id="Grupo_891" data-name="Grupo 891">
      <path id="Trazado_28" data-name="Trazado 28" d="M278.875-60.235a4.525,4.525,0,0,1,1.993,2.12c.594,1.118,2.883,4.723,3.576,4.433s2.147-.522,1.573-1.119-3.007-4.469-3.4-4.7c-.369-.614.082-1.614.16-1.852S278.875-60.235,278.875-60.235Z" transform="translate(-274.446 73.003)" fill="url(#linear-gradient)"/>
      <g id="Grupo_872" data-name="Grupo 872" transform="translate(4.003 11.765)">
        <g id="Grupo_871" data-name="Grupo 871" clip-path="url(#clip-path)">
          <g id="Grupo_870" data-name="Grupo 870" transform="translate(-0.023 -0.708)">
            <rect id="Rectángulo_1353" data-name="Rectángulo 1353" width="2.01" height="9.484" transform="matrix(1, 0.026, -0.026, 1, 0.244, 0)" fill="#cb3055"/>
            <rect id="Rectángulo_1354" data-name="Rectángulo 1354" width="2.01" height="9.484" transform="translate(2.254 0.052) rotate(1.476)" fill="#ba354b"/>
            <rect id="Rectángulo_1355" data-name="Rectángulo 1355" width="2.01" height="9.484" transform="translate(4.263 0.103) rotate(1.476)" fill="#992c32"/>
            <rect id="Rectángulo_1356" data-name="Rectángulo 1356" width="2.01" height="9.484" transform="translate(6.272 0.155) rotate(1.476)" fill="#82151b"/>
          </g>
        </g>
      </g>
      <g id="Grupo_876" data-name="Grupo 876" transform="translate(12.635 0.21)">
        <g id="Grupo_875" data-name="Grupo 875" clip-path="url(#clip-path-2)">
          <g id="Grupo_874" data-name="Grupo 874" transform="translate(-1.073 -2.504)">
            <g id="Grupo_873" data-name="Grupo 873">
              <path id="Trazado_30" data-name="Trazado 30" d="M298.017-87.554,298.9-88.6a36,36,0,0,1,5.548,16.232l-1.341-.288A33.085,33.085,0,0,0,298.017-87.554Z" transform="translate(-295.365 88.602)" fill="#fbfaf4"/>
              <path id="Trazado_31" data-name="Trazado 31" d="M296.287-85.5l.884-1.048a33.086,33.086,0,0,1,5.091,14.9l-1.34-.288A30.286,30.286,0,0,0,296.287-85.5Z" transform="translate(-294.519 87.599)" fill="#f1efda"/>
              <path id="Trazado_32" data-name="Trazado 32" d="M294.558-83.453l.884-1.048a30.286,30.286,0,0,1,4.635,13.56l-1.34-.288A27.328,27.328,0,0,0,294.558-83.453Z" transform="translate(-293.674 86.597)" fill="#e2dcad"/>
              <path id="Trazado_33" data-name="Trazado 33" d="M292.829-81.4l.884-1.048a27.328,27.328,0,0,1,4.178,12.223l-1.341-.288A24.435,24.435,0,0,0,292.829-81.4Z" transform="translate(-292.829 85.595)" fill="#d3ca83"/>
            </g>
          </g>
        </g>
      </g>
      <g id="Grupo_879" data-name="Grupo 879" transform="translate(0 7.968)">
        <g id="Grupo_878" data-name="Grupo 878" clip-path="url(#clip-path-3)">
          <g id="Grupo_877" data-name="Grupo 877" transform="translate(-1.128 -0.431)">
            <rect id="Rectángulo_1357" data-name="Rectángulo 1357" width="1.25" height="7.502" transform="translate(7.098 0) rotate(71.13)" fill="#cb3055"/>
            <rect id="Rectángulo_1358" data-name="Rectángulo 1358" width="1.25" height="7.502" transform="translate(7.503 1.183) rotate(71.131)" fill="#ba354b"/>
            <rect id="Rectángulo_1359" data-name="Rectángulo 1359" width="1.25" height="7.502" transform="translate(7.907 2.366) rotate(71.131)" fill="#992c32"/>
            <rect id="Rectángulo_1360" data-name="Rectángulo 1360" width="1.25" height="7.502" transform="translate(8.311 3.549) rotate(71.128)" fill="#82151b"/>
          </g>
        </g>
      </g>
      <g id="Grupo_883" data-name="Grupo 883" transform="translate(4.804 0.538)">
        <g id="Grupo_882" data-name="Grupo 882" clip-path="url(#clip-path-4)">
          <g id="Grupo_881" data-name="Grupo 881" transform="translate(-0.862 0.853)">
            <g id="Grupo_880" data-name="Grupo 880">
              <path id="Trazado_36" data-name="Trazado 36" d="M288.095-78.613c-.451-.949-.929-1.868-1.448-2.78-2.893,1.931-5.467,4.32-8.725,5.585l.608,1.781A77.356,77.356,0,0,0,288.095-78.613Z" transform="translate(-277.922 81.393)" fill="#fbfaf4"/>
              <path id="Trazado_37" data-name="Trazado 37" d="M289.836-73.046q-.507-1.482-1.16-2.909a77.355,77.355,0,0,1-9.565,4.586l.609,1.78Z" transform="translate(-278.504 78.735)" fill="#f1efda"/>
              <path id="Trazado_38" data-name="Trazado 38" d="M291.282-67.255a31.2,31.2,0,0,0-.863-3.01L280.3-66.807l.609,1.78A77.3,77.3,0,0,1,291.282-67.255Z" transform="translate(-279.086 75.953)" fill="#e9e4c0"/>
              <path id="Trazado_39" data-name="Trazado 39" d="M292.421-61.292c-.148-1.038-.332-2.058-.557-3.084a77.3,77.3,0,0,0-10.37,2.228l.608,1.781C285.454-61.363,288.951-61.048,292.421-61.292Z" transform="translate(-279.668 73.075)" fill="#e0d9a6"/>
            </g>
          </g>
        </g>
      </g>
      <g id="Grupo_886" data-name="Grupo 886" transform="translate(13.154 5.265)">
        <g id="Grupo_885" data-name="Grupo 885" clip-path="url(#clip-path-5)">
          <g id="Grupo_884" data-name="Grupo 884" transform="translate(-3.807 -1.255)">
            <rect id="Rectángulo_1361" data-name="Rectángulo 1361" width="1.25" height="7.502" transform="translate(7.098 0) rotate(71.13)" fill="#cb3055"/>
            <rect id="Rectángulo_1362" data-name="Rectángulo 1362" width="1.25" height="7.502" transform="matrix(0.323, 0.946, -0.946, 0.323, 7.503, 1.183)" fill="#ba354b"/>
            <rect id="Rectángulo_1363" data-name="Rectángulo 1363" width="1.25" height="7.502" transform="translate(7.907 2.366) rotate(71.131)" fill="#992c32"/>
            <rect id="Rectángulo_1364" data-name="Rectángulo 1364" width="1.25" height="7.502" transform="translate(8.312 3.549) rotate(71.13)" fill="#82151b"/>
          </g>
        </g>
      </g>
      <path id="Trazado_42" data-name="Trazado 42" d="M300.829-72.528c.277.81.268,1.547-.019,1.645s-.745-.479-1.022-1.289-.268-1.547.019-1.645S300.552-73.338,300.829-72.528Z" transform="translate(-284.57 79.086)" fill="#63151b"/>
      <path id="Trazado_43" data-name="Trazado 43" d="M300.948-72.33c.241.706.279,1.332.085,1.4s-.547-.452-.789-1.157-.279-1.332-.085-1.4S300.707-73.036,300.948-72.33Z" transform="translate(-284.79 78.922)" fill="#d2758d"/>
      <g id="Grupo_890" data-name="Grupo 890" transform="translate(12.441)">
        <g id="Grupo_889" data-name="Grupo 889" clip-path="url(#clip-path-6)">
          <g id="Grupo_888" data-name="Grupo 888" transform="translate(-2.854 -7.216)">
            <g id="Grupo_887" data-name="Grupo 887">
              <path id="Trazado_44" data-name="Trazado 44" d="M292.031-96.7l-2.144-1.529a27,27,0,0,0,.653,16.024,27,27,0,0,0,9.292,13.072l.76-2.522a23.265,23.265,0,0,1-8-11.252A23.264,23.264,0,0,1,292.031-96.7Z" transform="translate(-288.966 98.231)" fill="#192c4f"/>
              <path id="Trazado_45" data-name="Trazado 45" d="M296.35-93.71l-2.144-1.529a23.264,23.264,0,0,0,.562,13.793,23.265,23.265,0,0,0,8,11.252q.38-1.261.76-2.522C297.435-77.174,294.262-86.455,296.35-93.71Z" transform="translate(-291.14 96.768)" fill="#34529f"/>
              <path id="Trazado_46" data-name="Trazado 46" d="M300.689-90.718l-2.144-1.529c-2.088,7.254,1.084,16.535,7.175,20.994l.76-2.522A16.637,16.637,0,0,1,300.689-90.718Z" transform="translate(-293.335 95.306)" fill="#5079cf"/>
              <path id="Trazado_47" data-name="Trazado 47" d="M305.006-87.727l-2.144-1.529a16.637,16.637,0,0,0,5.791,16.943q.38-1.261.76-2.522A12.673,12.673,0,0,1,305.006-87.727Z" transform="translate(-295.507 93.844)" fill="#5079cf"/>
            </g>
          </g>
        </g>
      </g>
    </g>
  </g>
</svg>
