<svg id="logo_tienda_iusa" xmlns="http://www.w3.org/2000/svg" width="158.228" height="32.698" viewBox="0 0 158.228 32.698">
  <path id="Fill-1" d="M-63.436,7.919h-2.9v-1.9h8.163v1.9h-2.882V19h-2.38Z" transform="translate(105.469 3.811)"/>
  <path id="Fill-2" d="M-45.386,18.24h2.306V8.664h-2.306Zm-.037-11.38h2.38V4.591h-2.38Z" transform="translate(94.337 4.572)"/>
  <path id="Fill-3" d="M-30.5,17.09c0-1.692-.558-2.548-1.6-2.548-1.209,0-1.711,1.283-1.711,2.548Zm1.748,5.151a7.138,7.138,0,0,1-2.864.614c-3.087,0-4.426-2.213-4.426-4.8,0-2.864,1.506-5.077,3.942-5.077,2.064,0,3.831,1.209,3.831,5.114v.446h-5.542c0,1.637.651,2.622,2.436,2.622a3.805,3.805,0,0,0,2.51-.744Z" transform="translate(89.342 0.107)"/>
  <path id="Fill-5" d="M-15.687,14.71a13.093,13.093,0,0,0-.074-1.581H-13.6c.019.484.074.986.074,1.469h.037a2.794,2.794,0,0,1,2.548-1.618c2.176,0,2.826,1.618,2.826,3.552v6.174h-2.306V16.96c0-1.469-.372-2.083-1.32-2.083-1.209,0-1.636,1.023-1.636,2.25v5.579h-2.306v-8Z" transform="translate(78.548 0.107)"/>
  <path id="Fill-7" d="M8.476,16.359c1.357,0,1.822-1.469,1.822-3.273,0-1.86-.521-3.217-1.785-3.217-1.283,0-1.73,1.246-1.73,3.161C6.783,15.243,7.137,16.359,8.476,16.359ZM12.6,3.955V16.266a12.358,12.358,0,0,0,.074,1.637H10.521a12.775,12.775,0,0,1-.074-1.487H10.39a2.579,2.579,0,0,1-2.548,1.636c-2.38,0-3.366-2.268-3.366-4.928,0-3.124,1.246-4.946,3.31-4.946A2.575,2.575,0,0,1,10.26,9.7H10.3V3.955Z" transform="translate(67.776 4.911)"/>
  <path id="Fill-9" d="M30.816,18.02h-.2c-1.971,0-3.143.409-3.143,1.8a1.386,1.386,0,0,0,1.469,1.469c1.376,0,1.878-1.023,1.878-2.734Zm-4.537-4.333a6.677,6.677,0,0,1,3.031-.707c2.975,0,3.663,1.45,3.663,3.849v4.184a11.759,11.759,0,0,0,.13,1.692H31.021a4.747,4.747,0,0,1-.13-1.3h-.037a3.08,3.08,0,0,1-2.678,1.45,2.748,2.748,0,0,1-2.864-2.808c0-2.6,2.12-3.254,5.039-3.254h.465v-.353a1.647,1.647,0,0,0-1.785-1.822,4.419,4.419,0,0,0-2.622.93Z" transform="translate(56.687 0.107)"/>
  <path id="Fill-11" d="M45.432,19h2.38V6.022h-2.38Z" transform="translate(45.977 3.811)" fill="#e2232a"/>
  <path id="Fill-13" d="M57,6.023v8.406c0,2.157.651,2.864,2.045,2.864,1.357,0,2.027-.707,2.027-2.864V6.023h2.38v8.406c0,3.421-1.971,4.761-4.407,4.761-2.455,0-4.426-1.339-4.426-4.761V6.023Z" transform="translate(41.088 3.81)" fill="#e2232a"/>
  <path id="Fill-14" d="M76.067,16.281a5.309,5.309,0,0,0,2.752.8A1.8,1.8,0,0,0,80.79,15.2c0-.929-.539-1.339-1.692-1.971l-1.209-.669a3.646,3.646,0,0,1-2.12-3.4c0-2.325,1.915-3.533,4.091-3.533a8.491,8.491,0,0,1,2.715.464l-.112,1.99a6.183,6.183,0,0,0-2.435-.558c-1.19,0-1.8.632-1.8,1.525,0,.967.651,1.339,1.376,1.748l1.395.781c1.525.855,2.25,1.674,2.25,3.5,0,2.641-1.878,3.905-4.352,3.905a5.935,5.935,0,0,1-2.957-.577Z" transform="translate(29.829 4.021)" fill="#e2232a"/>
  <path id="Fill-15" d="M99.622,14.056,97.985,7.993h-.037l-1.785,6.062Zm.5,1.822H95.661L94.731,19h-2.38L96.7,6.022h2.6L103.49,19h-2.455Z" transform="translate(21.003 3.811)" fill="#e2232a"/>
  <path id="Fill-16" d="M118.394,31.022h2.232V28.6h-2.232Z" transform="translate(7.141 -8.21)"/>
  <path id="Fill-17" d="M132.8,22.464a6.566,6.566,0,0,1-2.269.391c-3.161,0-4.5-2.213-4.5-4.928,0-2.734,1.413-4.947,4.63-4.947a6.3,6.3,0,0,1,2.008.391l-.13,1.822a3.689,3.689,0,0,0-1.618-.465c-1.748,0-2.51,1.172-2.51,3.218,0,1.785.855,3.161,2.622,3.161a3.7,3.7,0,0,0,1.637-.465Z" transform="translate(3.078 0.107)"/>
  <path id="Fill-18" d="M145.6,21.218c1.487,0,1.822-1.711,1.822-3.31s-.335-3.291-1.822-3.291-1.841,1.692-1.841,3.291.353,3.31,1.841,3.31m0-8.238c1.953,0,4.2,1.023,4.2,4.928,0,4.017-2.25,4.946-4.2,4.946s-4.221-.929-4.221-4.946c0-3.905,2.268-4.928,4.221-4.928" transform="translate(-5.091 0.107)"/>
  <path id="Fill-19" d="M161.489,14.691a15.045,15.045,0,0,0-.074-1.562h2.306c.019.5.074,1,.074,1.506h.037a2.664,2.664,0,0,1,2.417-1.655,2.476,2.476,0,0,1,2.417,1.525,2.966,2.966,0,0,1,2.566-1.525c2.083,0,2.752,1.488,2.752,3.812v5.913H171.68V16.662c0-1.19-.372-1.785-1.227-1.785-1.023,0-1.562.967-1.562,2.027v5.8h-2.306V16.662c0-1.19-.372-1.785-1.227-1.785-1.023,0-1.562.967-1.562,2.027v5.8h-2.306V14.691Z" transform="translate(-15.757 0.107)"/>
  <path id="Fill-20" d="M-76.608,19.081h.806V-7.778h-.806Z" transform="translate(110.935 11.156)"/>
  <g id="Group-5">
    <path id="Fill-25" d="M-113.26,47.116l-.528.5-.335-.491.966-.843h.6v3.979h-.7Z" transform="translate(130.904 -17.617)"/>
    <path id="Fill-26" d="M-108.655,49.519a1.5,1.5,0,0,0,.653.171c.767,0,.9-.844.92-1.328l-.011-.011a.781.781,0,0,1-.727.4c-.557,0-1.057-.428-1.057-1.294a1.139,1.139,0,0,1,1.165-1.3c1.011,0,1.29.833,1.29,1.859,0,1.174-.324,2.235-1.539,2.235a1.942,1.942,0,0,1-.733-.137Zm.994-1.328c.335,0,.511-.3.511-.746,0-.468-.159-.753-.511-.753s-.512.285-.512.753C-108.172,47.877-108.024,48.191-107.66,48.191Z" transform="translate(128.111 -17.551)"/>
    <path id="Fill-27" d="M-103.054,49.468a1.753,1.753,0,0,0,.8.2.659.659,0,0,0,.727-.661c0-.462-.409-.6-.767-.6a2.092,2.092,0,0,0-.29.017v-.553h.119c.455,0,.92-.109.92-.6,0-.365-.312-.53-.642-.53a1.876,1.876,0,0,0-.755.194l-.04-.61a2.917,2.917,0,0,1,.955-.165c.7,0,1.188.353,1.188,1a.858.858,0,0,1-.767.924v.011c.364.1.83.251.83.964a1.227,1.227,0,0,1-1.375,1.191,2.792,2.792,0,0,1-.943-.171Z" transform="translate(125.033 -17.552)"/>
    <path id="Fill-28" d="M-97.239,49.519a1.5,1.5,0,0,0,.653.171c.767,0,.9-.844.92-1.328l-.011-.011a.781.781,0,0,1-.727.4c-.557,0-1.057-.428-1.057-1.294a1.139,1.139,0,0,1,1.165-1.3c1.011,0,1.29.833,1.29,1.859,0,1.174-.324,2.235-1.539,2.235a1.942,1.942,0,0,1-.733-.137Zm.994-1.328c.335,0,.511-.3.511-.746,0-.468-.159-.753-.511-.753s-.512.285-.512.753C-96.756,47.877-96.608,48.191-96.244,48.191Z" transform="translate(122.035 -17.551)"/>
    <path id="Fill-29" d="M-122.992,12.1h.009V1.941h0L-139.864-15h-10.127v.009H-150V-4.828h0l16.882,16.941h10.127Zm-1.649-1.655h-7.791l-15.91-15.966v-7.818h7.791l15.91,15.965v7.819Z" transform="translate(150 15)"/>
    <path id="Fill-24" d="M-108.3,19.125h-1.85l-2.53,7.8h1.759l.491-1.731h2.4l.493,1.731h1.77Zm-1.739,4.683.819-2.953.808,2.953Z" transform="translate(130.133 -3.164)" fill="#e2232a"/>
    <path id="Fill-31" d="M-117.426,9.82a5.9,5.9,0,0,0-1.922-.32c-2.141,0-2.7,1.315-2.7,2.225a2.1,2.1,0,0,0,1.5,1.987c.973.405,1.645.642,1.645,1.232s-.555.9-1.175.9a4.342,4.342,0,0,1-1.864-.613v1.574a6.934,6.934,0,0,0,1.913.346c.908,0,3.032-.076,3.032-2.4,0-.892-.42-1.55-1.73-2.064-1.044-.411-1.377-.776-1.377-1.155,0-.488.588-.8,1.007-.8a5.787,5.787,0,0,1,1.672.489Z" transform="translate(135.12 1.959)" fill="#e2232a"/>
    <path id="Fill-30" d="M-132.246,5.709a1,1,0,0,1-1.008-1.065V-.125h-1.679v4.7A2.669,2.669,0,0,0-132.246,7.1a2.688,2.688,0,0,0,2.7-2.527v-4.7h-1.68l-.01,4.747a.992.992,0,0,1-1.008,1.087" transform="translate(141.98 7.082)" fill="#e2232a"/>
    <path id="Fill-21" d="M-142.02-1.394h1.679V-8h-1.679Z" transform="translate(145.752 11.274)" fill="#e2232a"/>
  </g>
</svg>
